<svg viewBox="0 0 14 15" fill="none" xmlns="http://www.w3.org/2000/svg">
<path d="M11.2233 3.75507H10.99L9.01832 1.78341C8.86082 1.62591 8.60416 1.62591 8.44082 1.78341C8.28332 1.94091 8.28332 2.19757 8.44082 2.36091L9.83499 3.75507H4.16499L5.55916 2.36091C5.71666 2.20341 5.71666 1.94674 5.55916 1.78341C5.40166 1.62591 5.14499 1.62591 4.98166 1.78341L3.01582 3.75507H2.78249C2.25749 3.75507 1.16666 3.75507 1.16666 5.24841C1.16666 5.81424 1.28332 6.18757 1.52832 6.43257C1.66832 6.57841 1.83749 6.65424 2.01832 6.69507C2.18749 6.73591 2.36832 6.74174 2.54332 6.74174H11.4567C11.6375 6.74174 11.8067 6.73007 11.97 6.69507C12.46 6.57841 12.8333 6.22841 12.8333 5.24841C12.8333 3.75507 11.7425 3.75507 11.2233 3.75507Z" fill="currentColor"/>
<path d="M11.1126 7.5H2.84093C2.47927 7.5 2.2051 7.82083 2.26343 8.17667L2.75343 11.175C2.91677 12.1783 3.35427 13.3333 5.29677 13.3333H8.56927C10.5351 13.3333 10.8851 12.3475 11.0951 11.245L11.6843 8.19417C11.7543 7.8325 11.4801 7.5 11.1126 7.5ZM6.18927 11.2625C6.18927 11.49 6.00843 11.6708 5.78677 11.6708C5.55927 11.6708 5.37843 11.49 5.37843 11.2625V9.3375C5.37843 9.11583 5.55927 8.92917 5.78677 8.92917C6.00843 8.92917 6.18927 9.11583 6.18927 9.3375V11.2625ZM8.68593 11.2625C8.68593 11.49 8.5051 11.6708 8.2776 11.6708C8.05593 11.6708 7.86927 11.49 7.86927 11.2625V9.3375C7.86927 9.11583 8.05593 8.92917 8.2776 8.92917C8.5051 8.92917 8.68593 9.11583 8.68593 9.3375V11.2625Z" fill="currentColor"/>
</svg>
