<svg viewBox="0 0 14 15" fill="none" xmlns="http://www.w3.org/2000/svg">
<path d="M12.6875 5.16659C12.6875 5.40576 12.4892 5.60409 12.25 5.60409H1.75C1.51083 5.60409 1.3125 5.40576 1.3125 5.16659C1.3125 4.92742 1.51083 4.72909 1.75 4.72909H2.345L2.56667 3.67326C2.77667 2.65242 3.21417 1.71326 4.9525 1.71326H9.0475C10.7858 1.71326 11.2233 2.65242 11.4333 3.67326L11.655 4.72909H12.25C12.4892 4.72909 12.6875 4.92742 12.6875 5.16659Z" fill="currentColor"/>
<path d="M12.9383 8.46829C12.8508 7.50579 12.5941 6.47913 10.7216 6.47913H3.27828C1.40578 6.47913 1.15495 7.50579 1.06162 8.46829L0.734948 12.0208C0.694115 12.4641 0.839948 12.9075 1.14328 13.24C1.45245 13.5783 1.88995 13.7708 2.35661 13.7708H3.45328C4.39828 13.7708 4.57911 13.2283 4.69578 12.8725L4.81245 12.5225C4.94661 12.12 4.98161 12.0208 5.50661 12.0208H8.49328C9.01828 12.0208 9.03578 12.0791 9.18745 12.5225L9.30411 12.8725C9.42078 13.2283 9.60161 13.7708 10.5466 13.7708H11.6433C12.1041 13.7708 12.5474 13.5783 12.8566 13.24C13.1599 12.9075 13.3058 12.4641 13.2649 12.0208L12.9383 8.46829ZM5.24995 9.68746H3.49995C3.26078 9.68746 3.06245 9.48913 3.06245 9.24996C3.06245 9.01079 3.26078 8.81246 3.49995 8.81246H5.24995C5.48911 8.81246 5.68745 9.01079 5.68745 9.24996C5.68745 9.48913 5.48911 9.68746 5.24995 9.68746ZM10.4999 9.68746H8.74995C8.51078 9.68746 8.31245 9.48913 8.31245 9.24996C8.31245 9.01079 8.51078 8.81246 8.74995 8.81246H10.4999C10.7391 8.81246 10.9374 9.01079 10.9374 9.24996C10.9374 9.48913 10.7391 9.68746 10.4999 9.68746Z" fill="currentColor"/>
</svg>
