<svg viewBox="0 0 12 13" fill="none" xmlns="http://www.w3.org/2000/svg">
<path d="M9.62 3.29H9.42L7.73 1.6C7.595 1.465 7.375 1.465 7.235 1.6C7.1 1.735 7.1 1.955 7.235 2.095L8.43 3.29H3.57L4.765 2.095C4.9 1.96 4.9 1.74 4.765 1.6C4.63 1.465 4.41 1.465 4.27 1.6L2.585 3.29H2.385C1.935 3.29 1 3.29 1 4.57C1 5.055 1.1 5.375 1.31 5.585C1.43 5.71 1.575 5.775 1.73 5.81C1.875 5.845 2.03 5.85 2.18 5.85H9.82C9.975 5.85 10.12 5.84 10.26 5.81C10.68 5.71 11 5.41 11 4.57C11 3.29 10.065 3.29 9.62 3.29Z" fill="currentColor"/>
<path d="M9.525 6.5H2.435C2.125 6.5 1.89 6.775 1.94 7.08L2.36 9.65C2.5 10.51 2.875 11.5 4.54 11.5H7.345C9.03 11.5 9.33 10.655 9.51 9.71L10.015 7.095C10.075 6.785 9.84 6.5 9.525 6.5ZM5.305 9.725C5.305 9.92 5.15 10.075 4.96 10.075C4.765 10.075 4.61 9.92 4.61 9.725V8.075C4.61 7.885 4.765 7.725 4.96 7.725C5.15 7.725 5.305 7.885 5.305 8.075V9.725ZM7.445 9.725C7.445 9.92 7.29 10.075 7.095 10.075C6.905 10.075 6.745 9.92 6.745 9.725V8.075C6.745 7.885 6.905 7.725 7.095 7.725C7.29 7.725 7.445 7.885 7.445 8.075V9.725Z" fill="currentColor"/>
</svg>
