<svg viewBox="0 0 12 13" fill="none" xmlns="http://www.w3.org/2000/svg">
<path d="M10.5 11.5H1.5C1.295 11.5 1.125 11.33 1.125 11.125C1.125 10.92 1.295 10.75 1.5 10.75H10.5C10.705 10.75 10.875 10.92 10.875 11.125C10.875 11.33 10.705 11.5 10.5 11.5Z" fill="currentColor"/>
<path d="M9.51 2.24C8.54 1.27 7.59 1.245 6.595 2.24L5.99 2.845C5.94 2.895 5.92 2.975 5.94 3.045C6.32 4.37 7.38 5.43 8.705 5.81C8.725 5.815 8.745 5.82 8.765 5.82C8.82 5.82 8.87 5.8 8.91 5.76L9.51 5.155C10.005 4.665 10.245 4.19 10.245 3.71C10.25 3.215 10.01 2.735 9.51 2.24Z" fill="currentColor"/>
<path d="M7.805 6.265C7.66 6.195 7.52 6.125 7.385 6.045C7.275 5.98 7.17 5.91 7.065 5.835C6.98 5.78 6.88 5.7 6.785 5.62C6.775 5.615 6.74 5.585 6.7 5.545C6.535 5.405 6.35 5.225 6.185 5.025C6.17 5.015 6.145 4.98 6.11 4.935C6.06 4.875 5.975 4.775 5.9 4.66C5.84 4.585 5.77 4.475 5.705 4.365C5.625 4.23 5.555 4.095 5.485 3.955C5.39322 3.75833 5.13509 3.69991 4.98163 3.85337L2.17 6.665C2.105 6.73 2.045 6.855 2.03 6.94L1.76 8.855C1.71 9.195 1.805 9.515 2.015 9.73C2.195 9.905 2.445 10 2.715 10C2.775 10 2.835 9.995 2.895 9.985L4.815 9.715C4.905 9.7 5.03 9.64 5.09 9.575L7.90627 6.75873C8.05666 6.60834 8.00016 6.34957 7.805 6.265Z" fill="currentColor"/>
</svg>
