<svg viewBox="0 0 14 15" fill="none" xmlns="http://www.w3.org/2000/svg">
<path d="M9.91667 1.66663H4.08333C2.8 1.66663 1.75 2.71663 1.75 3.99996V11C1.75 12.2833 2.8 13.3333 4.08333 13.3333H9.91667C11.2 13.3333 12.25 12.2833 12.25 11V3.99996C12.25 2.71663 11.2 1.66663 9.91667 1.66663ZM6.335 11.0816C6.2475 11.1691 6.13667 11.21 6.02583 11.21C5.915 11.21 5.80417 11.1691 5.71667 11.0816L5.3375 10.7025L4.97583 11.0641C4.88833 11.1516 4.7775 11.1925 4.66667 11.1925C4.55583 11.1925 4.445 11.1516 4.3575 11.0641C4.18833 10.895 4.18833 10.615 4.3575 10.4458L4.71917 10.0841L4.375 9.73996C4.20583 9.57079 4.20583 9.29079 4.375 9.12163C4.54417 8.95246 4.82417 8.95246 4.99333 9.12163L5.3375 9.46579L5.69917 9.10413C5.86833 8.93496 6.14833 8.93496 6.3175 9.10413C6.48667 9.27329 6.48667 9.55329 6.3175 9.72246L5.95583 10.0841L6.335 10.4633C6.50417 10.6325 6.50417 10.9125 6.335 11.0816ZM8.4525 11.2858C8.13167 11.2858 7.86917 11.0291 7.86917 10.7083V10.6966C7.86917 10.3758 8.13167 10.1133 8.4525 10.1133C8.77333 10.1133 9.03583 10.3758 9.03583 10.6966C9.03583 11.0175 8.77333 11.2858 8.4525 11.2858ZM9.63083 10.0258C9.31 10.0258 9.04167 9.76329 9.04167 9.44246C9.04167 9.12163 9.29833 8.85913 9.61917 8.85913H9.63083C9.95167 8.85913 10.2142 9.12163 10.2142 9.44246C10.2142 9.76329 9.95167 10.0258 9.63083 10.0258ZM10.5 5.89579C10.5 6.45579 10.0392 6.91663 9.47917 6.91663H4.52083C3.96083 6.91663 3.5 6.45579 3.5 5.89579V4.43746C3.5 3.87746 3.96083 3.41663 4.52083 3.41663H9.47917C10.0392 3.41663 10.5 3.87746 10.5 4.43746V5.89579Z" fill="currentColor"/>
</svg>
