<svg viewBox="0 0 14 15" fill="none" xmlns="http://www.w3.org/2000/svg">
<path d="M9.81758 9.6233C10.2084 9.36663 10.7217 9.64663 10.7217 10.1133V10.8658C10.7217 11.6066 10.1442 12.4 9.45008 12.6333L7.58925 13.2516C7.26258 13.3625 6.73175 13.3625 6.41091 13.2516L4.55008 12.6333C3.85008 12.4 3.27841 11.6066 3.27841 10.8658V10.1075C3.27841 9.64663 3.79175 9.36663 4.17675 9.61747L5.37841 10.3991C5.83925 10.7083 6.42258 10.86 7.00591 10.86C7.58925 10.86 8.17258 10.7083 8.63341 10.3991L9.81758 9.6233Z" fill="currentColor"/>
<path d="M11.655 4.26841L8.16084 1.97591C7.53084 1.56174 6.49251 1.56174 5.86251 1.97591L2.35084 4.26841C1.22501 4.99757 1.22501 6.64841 2.35084 7.38341L3.28418 7.99007L5.86251 9.67007C6.49251 10.0842 7.53084 10.0842 8.16084 9.67007L10.7217 7.99007L11.5208 7.46507V9.25007C11.5208 9.48924 11.7192 9.68757 11.9583 9.68757C12.1975 9.68757 12.3958 9.48924 12.3958 9.25007V6.38007C12.6292 5.62757 12.39 4.75257 11.655 4.26841Z" fill="currentColor"/>
</svg>
