<svg viewBox="0 0 14 15" fill="none" xmlns="http://www.w3.org/2000/svg">
<path d="M12.8333 12.8958H12.25V6.32167C12.25 5.96 12.0867 5.62167 11.8008 5.4L11.0833 4.84L11.0717 3.41084C11.0717 3.09 10.8092 2.83334 10.4883 2.83334H8.49916L7.71749 2.22667C7.29749 1.89417 6.70249 1.89417 6.28249 2.22667L2.19916 5.4C1.91332 5.62167 1.74999 5.96 1.74999 6.31584L1.72082 12.8958H1.16666C0.92749 12.8958 0.729156 13.0942 0.729156 13.3333C0.729156 13.5725 0.92749 13.7708 1.16666 13.7708H12.8333C13.0725 13.7708 13.2708 13.5725 13.2708 13.3333C13.2708 13.0942 13.0725 12.8958 12.8333 12.8958ZM3.79166 7.9375V7.0625C3.79166 6.74167 4.05416 6.47917 4.37499 6.47917H5.54166C5.86249 6.47917 6.12499 6.74167 6.12499 7.0625V7.9375C6.12499 8.25834 5.86249 8.52084 5.54166 8.52084H4.37499C4.05416 8.52084 3.79166 8.25834 3.79166 7.9375ZM8.45832 12.8958H5.54166V11.2917C5.54166 10.8075 5.93249 10.4167 6.41666 10.4167H7.58332C8.06749 10.4167 8.45832 10.8075 8.45832 11.2917V12.8958ZM10.2083 7.9375C10.2083 8.25834 9.94582 8.52084 9.62499 8.52084H8.45832C8.13749 8.52084 7.87499 8.25834 7.87499 7.9375V7.0625C7.87499 6.74167 8.13749 6.47917 8.45832 6.47917H9.62499C9.94582 6.47917 10.2083 6.74167 10.2083 7.0625V7.9375Z" fill="currentColor"/>
</svg>
