<svg viewBox="0 0 14 15" fill="none" xmlns="http://www.w3.org/2000/svg">
<path d="M9.33332 1.66663H4.66666C2.33332 1.66663 1.16666 2.83329 1.16666 5.16663V12.75C1.16666 13.0708 1.42916 13.3333 1.74999 13.3333H9.33332C11.6667 13.3333 12.8333 12.1666 12.8333 9.83329V5.16663C12.8333 2.83329 11.6667 1.66663 9.33332 1.66663ZM8.16666 9.39579H4.08332C3.84416 9.39579 3.64582 9.19746 3.64582 8.95829C3.64582 8.71913 3.84416 8.52079 4.08332 8.52079H8.16666C8.40582 8.52079 8.60416 8.71913 8.60416 8.95829C8.60416 9.19746 8.40582 9.39579 8.16666 9.39579ZM9.91666 6.47913H4.08332C3.84416 6.47913 3.64582 6.28079 3.64582 6.04163C3.64582 5.80246 3.84416 5.60413 4.08332 5.60413H9.91666C10.1558 5.60413 10.3542 5.80246 10.3542 6.04163C10.3542 6.28079 10.1558 6.47913 9.91666 6.47913Z" fill="currentColor"/>
</svg>
